<svg xmlns="http://www.w3.org/2000/svg" id="b7287cf6-3c61-4118-a002-e067d30a6e25" data-name="Layer 1" width="76.4786" height="64.2821" viewBox="0 0 76.4786 64.2821"><defs><style>.ab5bbff2-4130-437b-ad2b-1d6e822f5e0f{fill-rule:evenodd;}.ea434540-6d24-4826-93d6-6988313791bf{fill:#fff;}</style></defs><g id="b39c494b-f57b-43a1-abea-2eae0d224e8b" data-name="path-1"><path class="ab5bbff2-4130-437b-ad2b-1d6e822f5e0f" d="M0,25Q5.9171,64.65,37.6006,64.65T76.4786,25Z" transform="translate(0 -0.3677)"></path></g><polygon class="ea434540-6d24-4826-93d6-6988313791bf" points="2.158 34.943 2.749 36.943 73.332 36.943 73.981 34.943 2.158 34.943"></polygon><path class="ea434540-6d24-4826-93d6-6988313791bf" d="M26.02,11.5615c1.9361,2.7495,2.8555,4.3018.8965,6.8252l1.58,1.2266c2.9565-3.81.9389-6.6753-.8413-9.2036-.3809-.5406-.771-1.0933-1.128-1.6709-1.1137-1.8042-.4751-4.1284,1.9541-7.107L26.9316.3682C23.939,4.0371,23.2305,7.207,24.8262,9.79,25.2041,10.4019,25.6162,10.9883,26.02,11.5615Z" transform="translate(0 -0.3677)"></path><path class="ea434540-6d24-4826-93d6-6988313791bf" d="M38.02,11.561c1.9361,2.7495,2.856,4.3018.897,6.8257l1.58,1.2266c2.957-3.81.9384-6.6758-.8418-9.2041-.3809-.54-.771-1.0933-1.128-1.67-1.1142-1.8042-.4746-4.1289,1.9541-7.1065L38.9321.3677C35.939,4.0366,35.2305,7.2065,36.8262,9.79,37.2041,10.4019,37.6162,10.9878,38.02,11.561Z" transform="translate(0 -0.3677)"></path><path class="ea434540-6d24-4826-93d6-6988313791bf" d="M49.02,11.561c1.9366,2.7495,2.8565,4.3018.8975,6.8257l1.58,1.2266c2.957-3.81.9384-6.6758-.8418-9.2041-.3809-.54-.7715-1.0933-1.128-1.67-1.1142-1.8042-.4746-4.1289,1.9541-7.1065L49.9326.3677C46.94,4.0366,46.2305,7.2065,47.8262,9.79,48.2041,10.4019,48.6162,10.9878,49.02,11.561Z" transform="translate(0 -0.3677)"></path></svg>