<svg xmlns="http://www.w3.org/2000/svg" id="b7844b07-65a0-4292-98fb-562227f6ec7f" data-name="Layer 1" width="35.6001" height="68.0107" viewBox="0 0 35.6001 68.0107"><defs><style>.b0b843d5-5fe6-460e-a55d-2e23dc316fb0,.f6014a26-c397-4b6c-a28b-ef7981097ebc{fill-rule:evenodd;}.f6014a26-c397-4b6c-a28b-ef7981097ebc{fill:#fff;}</style></defs><path class="b0b843d5-5fe6-460e-a55d-2e23dc316fb0" d="M30.5264,65.8389h-10.94v-21.11c5.3875-1.0358,16.615-6.8046,15.9891-30.6892,0-7.403-2.3223-13.9109-3.797-13.9109a137.011,137.011,0,0,1-14.0164.94c-7.8339,0-12.3688-1.51-13.43-.94S.5637,2.1836,0,14.04c0,26.5726,13.0611,30.672,17.4136,30.8758V65.8389H5.54a1.0859,1.0859,0,1,0,0,2.1718H30.5264a1.0859,1.0859,0,0,0,0-2.1718Z" transform="translate(0 0)"></path><g id="f688d1e5-4cef-48d6-bf34-df805e960474" data-name="Path-4"><path class="f6014a26-c397-4b6c-a28b-ef7981097ebc" d="M3.1225,11.9444C3.9131,9.2,17.0449,19.2279,32.3683,15.1435c2.7256-.8469-3.6831,25.682-14.4867,26.3179C4.9767,41.223,2.3319,14.6887,3.1225,11.9444Z" transform="translate(0 0)"></path></g></svg>