<svg xmlns="http://www.w3.org/2000/svg" id="bed61a52-681a-4bb8-9b9d-76e703a97183" data-name="Layer 1" width="53.6426" height="66.5446" viewBox="0 0 53.6426 66.5446"><defs><style>.bf5bb3c0-1cf7-487b-b496-d412a02d03c6{fill:#fff;fill-rule:evenodd;}</style></defs><path d="M52.5479,33.0117a3.5656,3.5656,0,0,0-2.7266-1.0752H45.5672V24.4382a6.3448,6.3448,0,0,0-6.3448-6.3448H9.8056a6.3448,6.3448,0,0,0-6.3448,6.3448V60.2a6.3448,6.3448,0,0,0,6.3448,6.3448H39.2224A6.3447,6.3447,0,0,0,45.5672,60.2V52.7012h4.2541c2.4131,0,3.7969-1.5166,3.7969-4.1612l-.002-11.3261A5.3765,5.3765,0,0,0,52.5479,33.0117Zm-1.2364,4.124V48.54c0,1.712-.7051,1.8545-1.49,1.8545H45.5672v-16.15h4.2541a1.2686,1.2686,0,0,1,1.041.3428A3.65,3.65,0,0,1,51.3115,37.1357Z"></path><path class="bf5bb3c0-1cf7-487b-b496-d412a02d03c6" d="M40.0654,7.5305a9.5773,9.5773,0,0,0-5.0521,1.4282A14.4839,14.4839,0,0,0,21.3682,0C14.1457,0,8.1565,4.9365,7.0515,11.3964A8.0683,8.0683,0,0,0,0,19.2026,8.1618,8.1618,0,0,0,8.3947,27.11a8.6627,8.6627,0,0,0,5.5018-1.9358,15.3868,15.3868,0,0,0,14.9435,0v3.378a2.5956,2.5956,0,0,0,5.1912,0V24.2344a9.5784,9.5784,0,0,0,6.0342,2.1222,9.4139,9.4139,0,1,0,0-18.8261Z"></path></svg>