<svg xmlns="http://www.w3.org/2000/svg" id="b772fe8f-bf13-45d7-97e4-e408ed64b7c3" data-name="Layer 1" width="92.6137" height="51.4456" viewBox="0 0 92.6137 51.4456"><defs><style>.a46c2cf0-8760-4173-97f1-e4e89849e613,.aa6046ce-0b1f-44a2-972b-796300d15150{fill-rule:evenodd;}.a46c2cf0-8760-4173-97f1-e4e89849e613,.a7da4585-f98f-4055-9229-21c59ae8b5db{fill:#fff;}</style></defs><g id="ff57c060-d3d9-4dc8-aa8a-914947b7c749" data-name="path-1"><path class="aa6046ce-0b1f-44a2-972b-796300d15150" d="M13.3565.4944Q6.7315,40.032,36.8644,49.8228T86.0919,24.1276Z" transform="translate(-12.1624 -0.4944)"></path></g><path class="a46c2cf0-8760-4173-97f1-e4e89849e613" d="M12.1624,13.05h0L79.2137,34.9015l1.29-1.7647L12.2263,10.96h0Z" transform="translate(-12.1624 -0.4944)"></path><path class="a46c2cf0-8760-4173-97f1-e4e89849e613" d="M96.0483,12.36C88.8967-2.2886,34.741,2.0668,31.5361,6.0513S79.9689,20.49,82.427,29.2939,103.2,27.0079,96.0483,12.36Z" transform="translate(-12.1624 -0.4944)"></path><path class="a46c2cf0-8760-4173-97f1-e4e89849e613" d="M81.8464,35.1021" transform="translate(-12.1624 -0.4944)"></path><g id="b58cb612-0315-42dc-a9d0-d259ffae952c" data-name="Oval-Copy-14"><ellipse class="a7da4585-f98f-4055-9229-21c59ae8b5db" cx="90.5" cy="36.5" rx="1.5" ry="2.5" transform="translate(-19.0122 29.2581) rotate(-18)"></ellipse></g><g id="a268150a-7ca9-492b-b57e-d9bd6f894b1e" data-name="Oval"><ellipse class="a7da4585-f98f-4055-9229-21c59ae8b5db" cx="95.6899" cy="5.3549" rx="3.5" ry="2" transform="translate(-12.198 9.5373) rotate(-6)"></ellipse></g><g id="f1c6bf47-4c8b-4c46-8010-c4bd332da6cb" data-name="Oval-Copy-9"><ellipse class="a7da4585-f98f-4055-9229-21c59ae8b5db" cx="102.2915" cy="9.2798" rx="2.5" ry="1.5" transform="translate(-12.4584 13.8322) rotate(-8)"></ellipse></g><g id="efaf046e-2cfe-4682-8226-74a5e8f48513" data-name="Oval-Copy-8"><ellipse class="a7da4585-f98f-4055-9229-21c59ae8b5db" cx="100.2915" cy="14.2798" rx="1.5" ry="2.5" transform="translate(29.8743 96.6629) rotate(-63)"></ellipse></g></svg>