<svg xmlns="http://www.w3.org/2000/svg" id="Layer_2" data-name="Layer 2" viewBox="0 0 22.08 5.71"><defs><style>      .cls-1 {        fill: #11120d;      }    </style></defs><g id="Editable_Text" data-name="Editable Text"><g><g><path class="cls-1" d="m7.87,5.35s-.04,0-.06,0c-.02,0-.04,0-.06-.01-.02,0-.04-.01-.05-.01-.01,0-.02,0-.03,0,0,0-.01,0-.02,0,0,0,0,0-.01.01,0,0,0,0-.01,0s0,0-.01,0,0,0,0-.01c0,0,0-.02,0-.04,0-.02,0-.04,0-.06v-.65s0-.04-.02-.06c-.01-.02-.03-.03-.04-.04,0,0,0,0-.01,0,0,0,0,0,0-.01,0,0,0,0,0,0,0,0,0,0,.01,0,.01,0,.03,0,.05-.01.02,0,.04-.01.06-.02.02,0,.03-.01.04-.01,0,0,0,0,.01,0,0,0,0,0,0,0s0,0,0,0c0,0,0,.02,0,.05,0,.03,0,.06,0,.1v.28s0,.03,0,.03c0,0,0,0,0,.01.03-.02.06-.04.1-.06.04-.01.07-.02.1-.02.05,0,.09.01.12.03.04.02.07.05.09.09.02.04.03.08.03.14,0,.06-.01.11-.04.16-.03.05-.06.08-.1.11-.04.03-.1.04-.16.04Zm.03-.04s.06-.01.09-.03c.02-.02.04-.05.06-.09s.02-.08.02-.12c0-.03,0-.07-.02-.11-.01-.04-.03-.07-.06-.09s-.06-.04-.11-.04c-.04,0-.07,0-.09.02s-.05.03-.07.04v.26s0,.06.03.08c.02.02.04.04.07.05.03.01.06.02.09.02Z"></path><path class="cls-1" d="m8.8,5.71s-.03,0-.05-.01c-.01,0-.02-.02-.02-.04,0-.02,0-.03.01-.04,0-.01.02-.02.03-.02,0,0,.02,0,.03,0s.02,0,.02,0c0,0,.01,0,.01,0,0,0,0,0,.01-.01,0-.02.02-.04.03-.06.01-.02.03-.05.04-.08.01-.03.03-.06.04-.1,0,0,0-.02,0-.03,0,0,0-.01,0-.02s0-.01,0-.02l-.16-.39s-.01-.03-.02-.04c-.01-.01-.02-.02-.04-.02,0,0-.01,0-.02,0,0,0-.01,0-.01-.01,0,0,0,0,.01-.01,0,0,.01,0,.02,0,.02,0,.03,0,.04,0s.02,0,.02,0c0,0,.02,0,.03,0,.02,0,.03,0,.04,0,0,0,.02,0,.03,0s.02,0,.04,0c0,0,.01,0,.02,0,0,0,0,0,0,.01,0,0,0,.01-.01.02,0,0-.02,0-.02.01,0,0-.02,0-.02.01,0,0,0,.02,0,.03,0,0,0,.01,0,.02,0,0,0,.01,0,.02l.11.27s0,0,0,0c0,0,0,0,0,0l.09-.25s0-.01,0-.02c0-.01,0-.02,0-.02,0-.02,0-.03,0-.04,0,0-.01-.01-.02-.02,0,0-.02,0-.02-.01,0,0-.01-.01-.01-.02,0,0,0,0,.01-.01,0,0,.01,0,.02,0,.01,0,.03,0,.04,0,.01,0,.03,0,.06,0,.02,0,.03,0,.04,0s.01,0,.02,0c0,0,.01,0,.02,0,0,0,.01,0,.02,0,0,0,.01,0,.01.01,0,0,0,.01-.01.01,0,0-.01,0-.02,0-.01,0-.03.01-.04.03-.02.02-.03.04-.04.06l-.18.44s0,.01-.01.03c0,.02-.02.05-.03.08-.01.03-.03.06-.04.1-.01.03-.03.07-.04.1,0,.02-.02.03-.03.04-.02,0-.03.01-.05.01Z"></path><path class="cls-1" d="m10.74,5.34s-.02,0-.03,0c0,0-.01,0-.01-.01,0-.01.01-.02.04-.02.03,0,.06-.02.08-.03.02-.01.02-.04.02-.07v-.61s0-.06-.02-.07c-.01-.01-.04-.02-.07-.03-.02,0-.03,0-.03-.01,0,0-.01,0-.01-.02,0,0,0,0,.01-.01,0,0,.02,0,.03,0,.03,0,.06,0,.09,0,.02,0,.05,0,.07,0,.02,0,.05,0,.08,0,.03,0,.06,0,.09,0,.03,0,.06,0,.09,0,.03,0,.06,0,.08,0s.03,0,.04,0c0,0,0,0,.01,0s0,0,0,0c0,.03,0,.05.01.07s0,.05,0,.06c0,0,0,.01,0,.02,0,0,0,0-.01,0s0,0,0,0c0,0,0,0,0-.01,0-.02,0-.03-.01-.04,0-.01,0-.02-.02-.03-.01-.01-.03-.02-.04-.03-.02,0-.03,0-.05,0h-.18s-.02,0-.03.01c-.01,0-.02.02-.02.03v.29s0,.02,0,.02c0,0,.01,0,.02,0h.13s.04,0,.05-.01c0,0,.02-.03.02-.05,0-.02.01-.03.02-.03,0,0,0,0,.01,0,0,0,0,0,0,.02,0,0,0,.01,0,.02,0,.01,0,.03,0,.04,0,.01,0,.02,0,.03,0,0,0,.02,0,.04,0,.01,0,.03,0,.04,0,.01,0,.02,0,.03,0,0,0,.01,0,.02,0,0,0,0-.01,0-.01,0-.02-.01-.03-.04,0-.02-.01-.04-.02-.05,0,0-.02-.01-.04-.01h-.13s-.03,0-.03,0-.01.01-.01.03v.26s0,.06.02.07c.01.01.04.02.07.02h.1s.05,0,.07,0c.02,0,.04,0,.05-.02.01,0,.03-.02.04-.04s.02-.04.04-.06c0,0,0,0,0-.01,0,0,0,0,.01,0,0,0,0,0,.01,0,0,0,0,0,0,.01,0,0,0,.02,0,.04s-.01.04-.02.06c0,.02-.01.04-.02.05,0,0,0,.01,0,.02,0,0,0,0-.01,0-.04,0-.08,0-.12,0s-.07,0-.1,0c-.03,0-.07,0-.1,0s-.06,0-.1,0c-.02,0-.04,0-.05,0-.01,0-.03,0-.04,0-.02,0-.03,0-.06,0Z"></path><path class="cls-1" d="m12.01,5.33s-.02,0-.02,0c0,0,0,0,0-.01,0,0,0-.01,0-.01,0,0,.01,0,.02,0,.02,0,.03-.01.04-.02,0,0,.01-.02.01-.03v-.29s0-.05-.01-.06-.02-.03-.04-.03c0,0,0,0,0,0,0,0,0,0,0-.01,0,0,0-.01.01-.02.02,0,.05-.02.07-.03.03-.01.05-.03.06-.03,0,0,0,0,.01,0,0,0,0,0,0,0,0,0,0,0,0,0,0,0,0,0,0,.02s0,.02,0,.04c0,.01,0,.03,0,.04,0,0,0,0,0,0,.01-.02.03-.03.05-.05s.04-.02.05-.03c.02,0,.04-.01.05-.01.02,0,.03,0,.05.01.01,0,.02.02.02.03,0,0,0,.02,0,.03,0,.01-.01.02-.02.03s-.02.01-.03.01c0,0-.01,0-.02,0,0,0-.01,0-.02,0,0,0-.01,0-.02,0,0,0-.01,0-.02,0-.02,0-.04,0-.06.02s-.03.05-.03.09v.27s0,.02.02.03c.01,0,.03.02.05.02,0,0,.02,0,.02,0,0,0,0,0,0,.01,0,0,0,.01-.03.01-.03,0-.05,0-.06,0-.01,0-.03,0-.06,0-.02,0-.03,0-.04,0,0,0-.02,0-.03,0-.01,0-.02,0-.04,0Z"></path><path class="cls-1" d="m12.99,5.33s-.01,0-.02,0c0,0,0,0,0-.01,0,0,0-.01.01-.01s.01,0,.02,0c.02,0,.03-.01.04-.02,0,0,.01-.02.01-.03v-.29s0-.05-.01-.06c0-.02-.02-.03-.05-.03,0,0,0,0-.01,0s0,0,0-.01c0,0,0-.02.01-.02.04,0,.07-.02.09-.03.02-.01.04-.03.05-.03,0,0,.01,0,.02,0,0,0,0,0,0,0,0,0,0,.02,0,.04,0,.02,0,.04,0,.07,0,.03,0,.05,0,.07v.31s0,.03.02.03c.01,0,.02.01.04.02,0,0,.01,0,.02,0s.01,0,.01.01c0,0,0,.01-.03.01s-.03,0-.04,0c-.01,0-.02,0-.03,0,0,0-.02,0-.04,0-.02,0-.03,0-.04,0,0,0-.02,0-.03,0,0,0-.02,0-.04,0Zm.11-.7s-.03,0-.05-.02c-.01-.01-.02-.03-.02-.05s0-.04.02-.05c.01-.01.03-.02.05-.02s.04,0,.05.02c.01.01.02.03.02.05s0,.03-.02.05-.03.02-.05.02Z"></path><path class="cls-1" d="m14.09,5.35s-.09-.01-.12-.03-.07-.05-.09-.09c-.02-.04-.03-.08-.03-.13,0-.06.01-.11.04-.16.03-.05.06-.09.1-.11.04-.03.09-.04.14-.04.06,0,.11.02.15.05.01,0,.02.02.02.03,0,0,0,.02,0,.02,0,0-.01.02-.02.02,0,0-.02,0-.03,0,0,0,0,0-.01,0,0,0,0,0-.01-.01-.02-.02-.04-.03-.07-.04-.02-.01-.04-.02-.06-.02-.04,0-.08.02-.11.06-.03.04-.04.09-.04.16,0,.04,0,.08.03.11s.04.06.07.08c.03.02.07.03.1.03.03,0,.05,0,.07-.01.02,0,.04-.02.06-.05,0,0,0,0,0,0s0,0,0,0c0,0,.01,0,.01.02,0,0,0,.01,0,.02,0,0,0,.01-.02.02-.01.02-.03.03-.05.05-.02.01-.04.02-.07.03-.02,0-.05,0-.08,0Z"></path></g><g><path class="cls-1" d="m1.21,3.54s-.07,0-.09-.01c-.02,0-.04-.02-.04-.04,0-.04.05-.06.15-.08.11-.02.2-.05.26-.1.06-.05.09-.12.09-.22v-1.99c0-.1-.02-.18-.06-.22-.04-.04-.12-.08-.23-.1-.1-.02-.15-.05-.15-.09,0-.02.01-.03.04-.04.02,0,.05-.01.09-.01.08,0,.14,0,.2,0,.05,0,.1,0,.15,0,.05,0,.1,0,.17,0s.12,0,.16,0c.04,0,.09,0,.13,0,.05,0,.11,0,.19,0,.04,0,.07,0,.09.01.02,0,.04.02.04.04,0,.02-.01.04-.04.05-.02.01-.06.03-.11.04-.11.02-.19.05-.24.1-.05.04-.07.12-.07.22v1.99c0,.1.03.18.09.22.06.05.15.08.26.1.05,0,.09.02.11.03.02.01.04.03.04.05,0,.02-.01.03-.04.04-.02,0-.05.01-.09.01-.08,0-.14,0-.2,0-.05,0-.1,0-.15-.01-.05,0-.1,0-.17,0-.07,0-.14,0-.19,0-.05,0-.11,0-.17.01s-.13,0-.2,0Z"></path><g><path class="cls-1" d="m2.87,3.82H.62V.35h2.25v3.47Zm-2.2-.05h2.16V.41H.67v3.36Z"></path><path class="cls-1" d="m3.49,0v4.18H0V0h3.49Zm-.12,3.95v-.26h-.26v.26h.26Zm0-.49v-.26h-.26v.26h.26Zm0-.49v-.26h-.26v.26h.26Zm0-.49v-.26h-.26v.26h.26Zm0-.49v-.26h-.26v.26h.26Zm0-.49v-.26h-.26v.26h.26Zm0-.49v-.26h-.26v.26h.26Zm0-.49V.23h-.26v.26h.26Zm-.38,3.46V.23H.5v3.72h2.5ZM.38,3.95v-.26H.12v.26h.26Zm0-.49v-.26H.12v.26h.26Zm0-.49v-.26H.12v.26h.26Zm0-.49v-.26H.12v.26h.26Zm0-.49v-.26H.12v.26h.26Zm0-.49v-.26H.12v.26h.26Zm0-.49v-.26H.12v.26h.26ZM.38.49V.23H.12v.26h.26Z"></path></g><g><path class="cls-1" d="m4.86,3.53c-.12,0-.24-.02-.35-.06-.11-.04-.2-.09-.27-.16-.02-.04-.03-.12-.04-.22,0-.1-.02-.19-.02-.26,0-.04.03-.05.08-.05.02,0,.03,0,.04,0,.01,0,.02.02.03.03.05.19.13.33.25.42.11.08.23.13.34.13s.21-.04.29-.12c.08-.08.12-.17.12-.29,0-.11-.04-.2-.11-.28-.07-.08-.2-.17-.38-.28-.13-.08-.24-.16-.33-.24-.08-.08-.14-.15-.18-.23-.04-.08-.06-.17-.06-.27,0-.13.03-.24.09-.35.06-.1.15-.19.27-.25.12-.06.27-.09.45-.09.12,0,.22.01.3.04.08.02.14.05.18.08.03.04.06.11.08.21.02.09.03.18.03.26,0,.03-.02.04-.06.04-.02,0-.05,0-.07-.01-.02,0-.04-.02-.04-.04-.05-.13-.12-.23-.19-.3-.08-.07-.17-.1-.29-.1-.1,0-.19.03-.26.09-.08.06-.12.15-.12.26,0,.09.03.17.09.24.06.07.17.15.32.24.23.13.4.25.51.37.11.11.17.26.17.45,0,.21-.08.39-.24.52-.16.13-.37.2-.63.2Z"></path><path class="cls-1" d="m7.94,3.53c-.19,0-.35-.06-.46-.18-.11-.12-.16-.3-.16-.53v-1.38s-.01-.05-.04-.07c-.02-.01-.08-.02-.15-.02h-.04s-.04-.01-.05-.04c-.01-.03-.02-.05-.02-.08,0,0,0-.02.02-.04.01-.02.02-.03.02-.03.08-.06.15-.11.22-.17.07-.06.13-.11.18-.16.05-.05.1-.1.13-.15.02-.02.04-.04.05-.05s.03-.02.05-.02.04,0,.06.01c.02,0,.02.03.02.05l-.03.27s0,.07.03.09c.02.02.06.02.11.02h.68s.03.01.04.04c.01.03.02.06.02.09s0,.07-.02.1c-.01.03-.03.05-.04.05h-.59c-.1,0-.16,0-.19.02-.03.02-.04.06-.04.14v1.17c0,.16.03.28.1.38.07.09.16.14.29.14.12,0,.2,0,.27-.03.06-.02.12-.04.17-.08,0,0,.02-.01.02-.01.02,0,.03,0,.03.03,0,.02,0,.04,0,.06s-.03.06-.1.12c-.07.06-.15.12-.26.17-.11.05-.22.08-.34.08Z"></path><path class="cls-1" d="m10.97,3.53c-.22,0-.42-.05-.6-.15-.18-.1-.32-.25-.43-.43-.11-.18-.16-.39-.16-.62,0-.17.03-.33.1-.49.07-.16.16-.3.28-.43s.26-.24.42-.31c.16-.08.33-.12.51-.12.23,0,.44.06.62.17.18.11.33.26.44.44.11.18.16.38.16.59,0,.23-.05.45-.15.65-.1.21-.25.37-.45.5-.2.13-.45.19-.74.19Zm.13-.18c.13,0,.26-.03.36-.08.11-.05.19-.13.25-.25.05-.09.08-.2.1-.33.02-.13.02-.25.02-.37,0-.19-.03-.37-.1-.55-.07-.18-.17-.32-.29-.43-.13-.11-.27-.17-.44-.17-.11,0-.2.02-.29.05-.09.03-.16.1-.24.19-.08.1-.13.22-.15.36-.02.14-.04.29-.04.43,0,.19.04.38.11.56.07.18.17.32.29.43.12.11.26.17.42.17Z"></path><path class="cls-1" d="m13.71,3.46s-.07,0-.09-.01c-.02,0-.03-.03-.03-.05,0-.03.01-.05.04-.06.02,0,.06-.02.1-.03.08-.02.13-.05.17-.09s.06-.08.06-.14v-1.28c0-.11-.02-.2-.05-.28-.03-.08-.1-.13-.2-.15-.02,0-.03-.01-.04-.03-.01-.02-.02-.03-.02-.05,0-.04.02-.06.05-.07.1-.03.21-.08.32-.14.11-.06.2-.11.26-.15.02-.02.04-.03.06-.03.01,0,.02,0,.03,0,.02,0,.03.01.03.04,0,.01,0,.04,0,.09,0,.05,0,.1,0,.17,0,.06,0,.13,0,.19,0,0,0,.01.01.01.06-.08.13-.15.21-.21.08-.06.16-.11.24-.14.08-.04.16-.05.24-.05.08,0,.15.02.21.05s.08.08.08.14c0,.04-.01.08-.03.13-.02.05-.05.09-.09.13s-.07.05-.11.05c-.02,0-.05,0-.08-.01-.03,0-.06-.02-.09-.04-.03-.01-.06-.02-.1-.04-.03-.01-.06-.02-.1-.02-.1,0-.19.03-.28.1-.09.07-.13.2-.13.4v1.2c0,.05.03.09.08.13.06.03.13.07.23.1.04.01.08.02.1.04.02.01.04.03.04.06,0,.04-.04.07-.12.07-.12,0-.21,0-.27-.01-.06,0-.14-.01-.25-.01-.07,0-.12,0-.16,0-.04,0-.09,0-.13.01-.05,0-.11,0-.19,0Z"></path><path class="cls-1" d="m16.68,5.14c-.08,0-.14-.02-.21-.06-.06-.04-.1-.1-.1-.19,0-.07.02-.13.05-.19.03-.05.08-.08.15-.08.04,0,.09,0,.13.02s.08.02.11.02c.02,0,.04,0,.06-.01.02,0,.03-.03.05-.05.04-.07.09-.16.15-.27.06-.11.12-.23.18-.36.06-.13.12-.28.18-.43.01-.04.02-.08.02-.14,0-.03,0-.06,0-.09,0-.03,0-.06-.02-.08l-.69-1.74c-.03-.07-.06-.13-.11-.19-.05-.05-.1-.09-.16-.1-.03-.01-.06-.03-.09-.04-.03-.02-.04-.04-.04-.07,0-.02.01-.04.04-.04.03,0,.05,0,.07,0,.08,0,.14,0,.18,0,.04,0,.07,0,.11.01.03,0,.08,0,.15,0,.07,0,.13,0,.16,0,.04,0,.07-.01.11-.01.04,0,.1,0,.18,0,.02,0,.05,0,.08.01.03,0,.04.03.04.05,0,.03-.02.05-.06.08-.04.03-.08.04-.11.05-.04.01-.07.03-.09.06-.02.03-.03.07-.03.13,0,.02,0,.05.02.09.01.03.02.06.03.08l.48,1.19s.02.04.04.04c.01,0,.02-.01.03-.04l.41-1.09s.02-.06.03-.11c0-.05.01-.08.01-.11,0-.08-.01-.13-.03-.16-.02-.03-.05-.05-.09-.07-.03-.02-.07-.04-.11-.06-.04-.03-.06-.05-.06-.08,0-.02.01-.04.04-.05.03,0,.05-.01.07-.01.06,0,.11,0,.17.01.06,0,.14.01.25.01.08,0,.13,0,.16,0,.03,0,.06-.01.09-.01.02,0,.06,0,.1,0,.02,0,.04,0,.07,0,.03,0,.04.02.04.04,0,.03-.01.05-.04.07-.03.02-.06.03-.09.04-.06.02-.12.06-.19.14-.07.08-.12.16-.16.26l-.81,1.93s-.02.06-.06.15c-.04.09-.08.2-.14.34-.06.13-.12.28-.18.43-.07.15-.13.3-.19.45-.04.08-.09.14-.15.18-.07.04-.14.06-.23.06Z"></path><path class="cls-1" d="m20.41,3.53c-.07,0-.14-.03-.22-.08-.07-.06-.13-.12-.18-.2-.05-.08-.07-.15-.07-.23,0-.13.03-.23.1-.3.07-.07.17-.14.32-.2l.61-.25c.08-.03.13-.06.14-.08.01-.02.02-.08.03-.15v-.38c.02-.1-.01-.19-.07-.27-.06-.08-.15-.11-.26-.11-.06,0-.12,0-.18.03-.06.02-.11.05-.15.08-.02.02-.04.04-.05.07,0,.03-.01.07-.01.1,0,.02,0,.03,0,.05,0,.02,0,.04,0,.05,0,.02-.02.05-.07.08-.05.03-.11.06-.17.09-.06.03-.11.04-.15.04-.02,0-.04,0-.05-.01-.01,0-.02-.02-.02-.04,0-.06.02-.13.06-.21.04-.07.1-.14.18-.21.09-.08.19-.16.3-.22.11-.06.21-.11.32-.15.1-.04.19-.05.27-.05.14,0,.26.05.35.15.09.1.14.23.13.38l-.03,1.43c0,.08.01.15.06.2.04.05.09.08.16.08.1,0,.17-.02.22-.07.02-.02.04-.03.05-.03.02,0,.04,0,.05.02.01.01.02.03.02.05,0,.04-.02.09-.07.13-.06.06-.13.11-.21.15-.07.04-.14.06-.21.06-.18,0-.33-.1-.43-.31h-.02c-.13.11-.26.19-.38.24-.12.05-.24.07-.37.07Zm.28-.29c.08,0,.15-.01.2-.04.06-.03.11-.06.15-.1.02-.02.04-.05.05-.08.01-.03.02-.09.03-.16v-.29s.01-.08,0-.1c0-.02-.02-.03-.05-.03,0,0-.02,0-.04,0-.02,0-.05.01-.08.02-.21.08-.36.15-.44.24s-.12.16-.12.22c0,.1.03.18.09.24.06.05.13.08.2.08Z"></path></g></g></g></g></svg>